<?xml version="1.0" encoding="utf-8"?>
<!-- Generator: Adobe Illustrator 22.1.0, SVG Export Plug-In . SVG Version: 6.00 Build 0)  -->
<svg version="1.1" id="Layer_1" xmlns="http://www.w3.org/2000/svg" xmlns:xlink="http://www.w3.org/1999/xlink" x="0px" y="0px"
	 viewBox="0 0 473 380" style="enable-background:new 0 0 473 380;" xml:space="preserve">
<style type="text/css">
	.st0{fill:#77ABB7;stroke:#000000;stroke-width:1.000000e-02;stroke-miterlimit:10;}
	.st1{fill:#77ABB7;}
	.st2{font-family:'ArialRoundedMTBold';}
	.st3{font-size:23.5232px;}
	.st4{fill:none;stroke:#77ABB7;stroke-miterlimit:10;}
</style>
<g>
	<g>
		<path class="st0" d="M118.5,229.1c11.9-1.5,16-8.3,16-18.3c0-8-5.9-23.7-5.9-37.7c0-14.4,5-22.9,19.3-22.9h4.2v4.1l-4.5,0.4
			c-12.7,1.1-15.7,6.3-15.7,18.7c0,15.2,5,27,5,37.2c0,10.5-3.6,20.2-16.6,21.1v-1.1c12.9,0.9,16.6,10.5,16.6,21.1
			c0,10.2-5,22-5,37.2c0,12.4,3,17.6,15.7,18.7l4.5,0.4v4.1h-4.2c-14.4,0-19.3-8.5-19.3-22.9c0-14.1,5.9-29.8,5.9-37.7
			c0-10-4.1-16.8-16-18.3V229.1z"/>
	</g>
</g>
<g>
	<g>
		<path class="st0" d="M286.2,80.3c1.5,11.9,8.3,16,18.3,16c8,0,23.7-5.9,37.7-5.9c14.4,0,22.9,5,22.9,19.3v4.2h-4.1l-0.4-4.5
			c-1.1-12.7-6.3-15.7-18.7-15.7c-15.2,0-27,5-37.2,5c-10.5,0-20.2-3.6-21.1-16.6h1.1c-0.9,12.9-10.5,16.6-21.1,16.6
			c-10.2,0-22-5-37.2-5c-12.4,0-17.6,3-18.7,15.7l-0.4,4.5h-4.1v-4.2c0-14.4,8.5-19.3,22.9-19.3c14.1,0,29.8,5.9,37.7,5.9
			c10,0,16.8-4.1,18.3-16H286.2z"/>
	</g>
</g>
<text transform="matrix(1 0 0 1 234.4111 55.3242)" class="st1 st2 st3">Vertical</text>
<g>
	<rect x="178.7" y="135.7" class="st4" width="200.9" height="200.9"/>
	<line class="st4" x1="178.7" y1="303.1" x2="379.6" y2="303.1"/>
	<line class="st4" x1="178.7" y1="269.7" x2="379.6" y2="269.7"/>
	<line class="st4" x1="178.7" y1="236.2" x2="379.6" y2="236.2"/>
	<line class="st4" x1="178.7" y1="202.7" x2="379.6" y2="202.7"/>
	<line class="st4" x1="178.7" y1="169.2" x2="379.6" y2="169.2"/>
	<line class="st4" x1="346.1" y1="135.7" x2="346.1" y2="336.6"/>
	<line class="st4" x1="312.6" y1="135.7" x2="312.6" y2="336.6"/>
	<line class="st4" x1="279.2" y1="135.7" x2="279.2" y2="336.6"/>
	<line class="st4" x1="245.7" y1="135.7" x2="245.7" y2="336.6"/>
	<line class="st4" x1="212.2" y1="135.7" x2="212.2" y2="336.6"/>
</g>
<text transform="matrix(6.123234e-17 -1 1 6.123234e-17 89.2051 287.5498)" class="st1 st2 st3">Horizontal</text>
</svg>
